<svg width="14" height="14" viewBox="0 0 14 14" fill="none" xmlns="http://www.w3.org/2000/svg">
<path d="M1.70311 1.75H12.2031C12.3664 1.75 12.5045 1.80639 12.6173 1.91917C12.7301 2.03194 12.7864 2.17 12.7864 2.33333V11.6667C12.7864 11.83 12.7301 11.9681 12.6173 12.0808C12.5045 12.1936 12.3664 12.25 12.2031 12.25H1.70311C1.53978 12.25 1.40173 12.1936 1.28895 12.0808C1.17617 11.9681 1.11978 11.83 1.11978 11.6667V2.33333C1.11978 2.17 1.17617 2.03194 1.28895 1.91917C1.40173 1.80639 1.53978 1.75 1.70311 1.75ZM11.6198 4.22333L6.99978 8.365L2.28645 4.21167V11.0833H11.6198V4.22333ZM2.58978 2.91667L6.98811 6.80167L11.3281 2.91667H2.58978Z" fill="white"/>
</svg>
