<svg width="20" height="21" viewBox="0 0 20 21" fill="none" xmlns="http://www.w3.org/2000/svg">
<path d="M10 20.855C8.63333 20.855 7.34167 20.5925 6.125 20.0675C4.90833 19.5425 3.84583 18.8258 2.9375 17.9175C2.02917 17.0091 1.3125 15.9466 0.7875 14.73C0.2625 13.5133 0 12.2216 0 10.855C0 9.47163 0.2625 8.1758 0.7875 6.96746C1.3125 5.75913 2.02917 4.70079 2.9375 3.79246C3.84583 2.88413 4.90833 2.16746 6.125 1.64246C7.34167 1.11746 8.63333 0.854961 10 0.854961C11.3833 0.854961 12.6792 1.11746 13.8875 1.64246C15.0958 2.16746 16.1542 2.88413 17.0625 3.79246C17.9708 4.70079 18.6875 5.75913 19.2125 6.96746C19.7375 8.1758 20 9.47163 20 10.855C20 12.2216 19.7375 13.5133 19.2125 14.73C18.6875 15.9466 17.9708 17.0091 17.0625 17.9175C16.1542 18.8258 15.0958 19.5425 13.8875 20.0675C12.6792 20.5925 11.3833 20.855 10 20.855ZM10 18.805C10.4333 18.205 10.8083 17.58 11.125 16.93C11.4417 16.28 11.7 15.5883 11.9 14.855H8.1C8.3 15.5883 8.55833 16.28 8.875 16.93C9.19167 17.58 9.56667 18.205 10 18.805ZM7.4 18.405C7.1 17.855 6.8375 17.2841 6.6125 16.6925C6.3875 16.1008 6.2 15.4883 6.05 14.855H3.1C3.58333 15.6883 4.1875 16.4133 4.9125 17.03C5.6375 17.6466 6.46667 18.105 7.4 18.405ZM12.6 18.405C13.5333 18.105 14.3625 17.6466 15.0875 17.03C15.8125 16.4133 16.4167 15.6883 16.9 14.855H13.95C13.8 15.4883 13.6125 16.1008 13.3875 16.6925C13.1625 17.2841 12.9 17.855 12.6 18.405ZM2.25 12.855H5.65C5.6 12.5216 5.5625 12.1925 5.5375 11.8675C5.5125 11.5425 5.5 11.205 5.5 10.855C5.5 10.505 5.5125 10.1675 5.5375 9.84246C5.5625 9.51746 5.6 9.18829 5.65 8.85496H2.25C2.16667 9.18829 2.10417 9.51746 2.0625 9.84246C2.02083 10.1675 2 10.505 2 10.855C2 11.205 2.02083 11.5425 2.0625 11.8675C2.10417 12.1925 2.16667 12.5216 2.25 12.855ZM7.65 12.855H12.35C12.4 12.5216 12.4375 12.1925 12.4625 11.8675C12.4875 11.5425 12.5 11.205 12.5 10.855C12.5 10.505 12.4875 10.1675 12.4625 9.84246C12.4375 9.51746 12.4 9.18829 12.35 8.85496H7.65C7.6 9.18829 7.5625 9.51746 7.5375 9.84246C7.5125 10.1675 7.5 10.505 7.5 10.855C7.5 11.205 7.5125 11.5425 7.5375 11.8675C7.5625 12.1925 7.6 12.5216 7.65 12.855ZM14.35 12.855H17.75C17.8333 12.5216 17.8958 12.1925 17.9375 11.8675C17.9792 11.5425 18 11.205 18 10.855C18 10.505 17.9792 10.1675 17.9375 9.84246C17.8958 9.51746 17.8333 9.18829 17.75 8.85496H14.35C14.4 9.18829 14.4375 9.51746 14.4625 9.84246C14.4875 10.1675 14.5 10.505 14.5 10.855C14.5 11.205 14.4875 11.5425 14.4625 11.8675C14.4375 12.1925 14.4 12.5216 14.35 12.855ZM13.95 6.85496H16.9C16.4167 6.02163 15.8125 5.29663 15.0875 4.67996C14.3625 4.06329 13.5333 3.60496 12.6 3.30496C12.9 3.85496 13.1625 4.42579 13.3875 5.01746C13.6125 5.60913 13.8 6.22163 13.95 6.85496ZM8.1 6.85496H11.9C11.7 6.12163 11.4417 5.42996 11.125 4.77996C10.8083 4.12996 10.4333 3.50496 10 2.90496C9.56667 3.50496 9.19167 4.12996 8.875 4.77996C8.55833 5.42996 8.3 6.12163 8.1 6.85496ZM3.1 6.85496H6.05C6.2 6.22163 6.3875 5.60913 6.6125 5.01746C6.8375 4.42579 7.1 3.85496 7.4 3.30496C6.46667 3.60496 5.6375 4.06329 4.9125 4.67996C4.1875 5.29663 3.58333 6.02163 3.1 6.85496Z" fill="#D4AF37"/>
</svg>
