<svg width="508" height="136" viewBox="0 0 508 136" fill="none" xmlns="http://www.w3.org/2000/svg">
<path d="M119.825 39.9887C120.28 40.0112 120.653 40.3831 120.678 40.8443C120.704 41.33 120.34 41.7691 119.831 41.7967C117.991 41.8962 116.149 42.1941 114.347 42.6899L114.349 42.6908C114.15 42.7459 113.961 42.7993 113.777 42.8567L113.772 42.8579C106.135 45.1504 99.8514 50.9711 96.9599 58.4391L96.9609 58.44L96.893 58.6138L96.7764 58.9165L96.7735 58.9166C96.7662 58.9362 96.7575 58.9565 96.7495 58.9796L96.5142 59.6554C95.5014 62.7248 95.0756 65.9298 95.2519 69.1896C95.2786 69.6873 94.8945 70.1155 94.3968 70.1425C93.8991 70.1694 93.4711 69.785 93.444 69.2874C93.2388 65.4934 93.8011 61.7638 95.1104 58.2027L95.113 58.1967L95.1156 58.1897L95.144 58.1187L95.2053 57.9501L95.2061 57.9472C95.2528 57.8226 95.3044 57.6899 95.3564 57.5615L95.4392 57.3556L95.44 57.3536L95.7391 56.644C98.9356 49.3697 105.235 43.6699 112.788 41.2613L112.975 41.2022L112.976 41.2022L113.052 41.1775L113.06 41.1752L113.263 41.1172C113.327 41.0994 113.386 41.0831 113.446 41.0653L113.607 41.0175L113.664 40.9997L113.691 40.9983C115.673 40.4402 117.706 40.0984 119.733 39.9888L119.825 39.9887Z" fill="#E89C2A" stroke="#E89C2A"/>
<path d="M70.2801 60.3438C74.6961 61.3038 78.0881 63.2238 80.4561 66.1038C82.8881 68.9198 84.1041 72.5678 84.1041 77.0478C84.1041 82.8078 81.9601 87.2558 77.6721 90.3918C73.4481 93.4638 67.1761 94.9998 58.8561 94.9998H27.9441V27.7998H56.9361C64.4241 27.7998 70.2161 29.3038 74.3121 32.3118C78.4721 35.3198 80.5521 39.5758 80.5521 45.0798C80.5521 48.7918 79.6241 51.9598 77.7681 54.5838C75.9761 57.1438 73.4801 59.0638 70.2801 60.3438ZM35.0481 33.6558V58.0398H56.4561C61.8961 58.0398 66.0881 57.0158 69.0321 54.9678C71.9761 52.8558 73.4481 49.8158 73.4481 45.8478C73.4481 41.8798 71.9761 38.8718 69.0321 36.8238C66.0881 34.7118 61.8961 33.6558 56.4561 33.6558H35.0481ZM58.7601 89.1438C64.7761 89.1438 69.3201 88.1198 72.3921 86.0718C75.4641 84.0238 77.0001 80.8238 77.0001 76.4718C77.0001 68.0878 70.9201 63.8958 58.7601 63.8958H35.0481V89.1438H58.7601Z" fill="white"/>
<path d="M97.712 95.48C93.168 95.48 89.648 94.2 87.152 91.64C84.72 89.08 83.504 85.528 83.504 80.984V23.768H90.32V80.408C90.32 83.416 91.024 85.72 92.432 87.32C93.84 88.856 95.952 89.624 98.768 89.624C100.56 89.624 102.096 89.336 103.376 88.76L103.856 94.424C101.872 95.128 99.824 95.48 97.712 95.48Z" fill="white"/>
<path d="M149.584 44.504V95H143.056V85.016C141.008 88.408 138.288 91 134.896 92.792C131.568 94.584 127.792 95.48 123.568 95.48C118.832 95.48 114.544 94.392 110.704 92.216C106.864 90.04 103.856 87 101.68 83.096C99.504 79.192 98.416 74.744 98.416 69.752C98.416 64.76 99.504 60.312 101.68 56.408C103.856 52.504 106.864 49.496 110.704 47.384C114.544 45.208 118.832 44.12 123.568 44.12C127.664 44.12 131.344 44.984 134.608 46.712C137.936 48.376 140.656 50.84 142.768 54.104V44.504H149.584ZM124.144 89.432C127.664 89.432 130.832 88.632 133.648 87.032C136.528 85.368 138.768 83.032 140.368 80.024C142.032 77.016 142.864 73.592 142.864 69.752C142.864 65.912 142.032 62.488 140.368 59.48C138.768 56.472 136.528 54.168 133.648 52.568C130.832 50.904 127.664 50.072 124.144 50.072C120.56 50.072 117.328 50.904 114.448 52.568C111.632 54.168 109.392 56.472 107.728 59.48C106.128 62.488 105.328 65.912 105.328 69.752C105.328 73.592 106.128 77.016 107.728 80.024C109.392 83.032 111.632 85.368 114.448 87.032C117.328 88.632 120.56 89.432 124.144 89.432Z" fill="white"/>
<path d="M169.432 95.48C164.44 95.48 159.96 94.392 155.992 92.216C152.088 90.04 149.016 87 146.776 83.096C144.536 79.128 143.416 74.68 143.416 69.752C143.416 64.824 144.536 60.408 146.776 56.504C149.016 52.6 152.088 49.56 155.992 47.384C159.96 45.208 164.44 44.12 169.432 44.12C173.784 44.12 177.656 44.984 181.048 46.712C184.504 48.376 187.224 50.84 189.208 54.104L184.12 57.56C182.456 55.064 180.344 53.208 177.784 51.992C175.224 50.712 172.44 50.072 169.432 50.072C165.784 50.072 162.488 50.904 159.544 52.568C156.664 54.168 154.392 56.472 152.728 59.48C151.128 62.488 150.328 65.912 150.328 69.752C150.328 73.656 151.128 77.112 152.728 80.12C154.392 83.064 156.664 85.368 159.544 87.032C162.488 88.632 165.784 89.432 169.432 89.432C172.44 89.432 175.224 88.824 177.784 87.608C180.344 86.392 182.456 84.536 184.12 82.04L189.208 85.496C187.224 88.76 184.504 91.256 181.048 92.984C177.592 94.648 173.72 95.48 169.432 95.48Z" fill="white"/>
<path d="M210.224 69.656L198.32 80.6V95H191.504V23.768H198.32V72.056L228.464 44.504H236.912L215.312 65.144L238.928 95H230.576L210.224 69.656Z" fill="white"/>
<path d="M408.232 44.1201C414.568 44.1201 419.592 45.9761 423.304 49.6881C427.08 53.3361 428.968 58.6801 428.968 65.7201V95.0001H422.152V66.3921C422.152 61.1441 420.84 57.1441 418.216 54.3921C415.592 51.6401 411.848 50.2641 406.984 50.2641C401.544 50.2641 397.224 51.8961 394.024 55.1601C390.888 58.3601 389.32 62.8081 389.32 68.5041L388.5 95.0001H382.504V23.7681H389.32V53.3361C391.176 50.3921 393.736 48.1201 397 46.5201C400.264 44.9201 404.008 44.1201 408.232 44.1201Z" fill="white"/>
<path d="M327.504 44.504H334.32V95H327.504V44.504ZM330.96 33.464C329.552 33.464 328.368 32.984 327.408 32.024C326.448 31.064 325.968 29.912 325.968 28.568C325.968 27.288 326.448 26.168 327.408 25.208C328.368 24.248 329.552 23.768 330.96 23.768C332.368 23.768 333.552 24.248 334.512 25.208C335.472 26.104 335.952 27.192 335.952 28.472C335.952 29.88 335.472 31.064 334.512 32.024C333.552 32.984 332.368 33.464 330.96 33.464Z" fill="white"/>
<path d="M319.712 95.48C315.168 95.48 311.648 94.2 309.152 91.64C306.72 89.08 305.504 85.528 305.504 80.984V23.768H312.32V80.408C312.32 83.416 313.024 85.72 314.432 87.32C315.84 88.856 317.952 89.624 320.768 89.624C322.56 89.624 324.096 89.336 325.376 88.76L325.856 94.424C323.872 95.128 321.824 95.48 319.712 95.48Z" fill="white"/>
<path d="M285.056 33.56C278.464 33.56 273.536 35.064 270.272 38.072C267.072 41.016 265.472 45.304 265.472 50.936V60.344H297.536V66.488H265.472V95H258.368V50.84C258.368 43.48 260.672 37.72 265.28 33.56C269.888 29.336 276.384 27.224 284.768 27.224C292.896 27.224 299.424 28.984 304.352 32.504L301.76 38.36C297.408 35.16 291.84 33.56 285.056 33.56Z" fill="white"/>
<path d="M389.256 44.5041V88.8561C389.256 97.4321 387.144 103.768 382.92 107.864C378.76 112.024 372.456 114.104 364.008 114.104C359.336 114.104 354.888 113.4 350.664 111.992C346.504 110.648 346.5 110.5 344 108.5L343.944 101.144C346.376 103.32 349.32 105.016 352.776 106.232C356.296 107.448 359.976 108.056 363.816 108.056C370.216 108.056 374.92 106.552 377.928 103.544C380.936 100.6 382.44 95.9921 382.44 89.7201V83.2881C380.328 86.4881 377.544 88.9201 374.088 90.5841C370.696 92.2481 366.92 93.0801 362.76 93.0801C358.024 93.0801 353.704 92.0561 349.8 90.0081C345.96 87.8961 342.92 84.9841 340.68 81.2721C338.504 77.4961 337.416 73.2401 337.416 68.5041C337.416 63.7681 338.504 59.5441 340.68 55.8321C342.92 52.1201 345.96 49.2401 349.8 47.1921C353.64 45.1441 357.96 44.1201 362.76 44.1201C367.048 44.1201 370.92 44.9841 374.376 46.7121C377.832 48.4401 380.616 50.9361 382.728 54.2001V44.5041H389.256ZM363.432 87.0321C367.08 87.0321 370.376 86.2641 373.32 84.7281C376.264 83.1281 378.536 80.9201 380.136 78.1041C381.8 75.2881 382.632 72.0881 382.632 68.5041C382.632 64.9201 381.8 61.7521 380.136 59.0001C378.536 56.1841 376.264 54.0081 373.32 52.4721C370.44 50.8721 367.144 50.0721 363.432 50.0721C359.784 50.0721 356.488 50.8401 353.544 52.3761C350.664 53.9121 348.392 56.0881 346.728 58.9041C345.128 61.7201 344.328 64.9201 344.328 68.5041C344.328 72.0881 345.128 75.2881 346.728 78.1041C348.392 80.9201 350.664 83.1281 353.544 84.7281C356.488 86.2641 359.784 87.0321 363.432 87.0321Z" fill="white"/>
<line x1="0.00698313" y1="123.75" x2="179.007" y2="124.75" stroke="white" stroke-width="2.5"/>
<path d="M27.9983 117.25L180.5 117.25" stroke="#E89C2A" stroke-width="2.5"/>
<path d="M333.5 117.25L480.002 117.25" stroke="#E89C2A" stroke-width="2.5"/>
<path d="M329 124.875H508.002" stroke="white" stroke-width="2.5"/>
<path d="M182.08 98H185L179.92 123.44H195.6L195.08 126H176.48L182.08 98ZM207.282 126.2C205.362 126.2 203.682 125.84 202.242 125.12C200.802 124.373 199.682 123.333 198.882 122C198.109 120.64 197.722 119.067 197.722 117.28C197.722 114.907 198.242 112.773 199.282 110.88C200.322 108.987 201.762 107.507 203.602 106.44C205.469 105.347 207.562 104.8 209.882 104.8C212.816 104.8 215.136 105.6 216.842 107.2C218.576 108.8 219.442 110.96 219.442 113.68C219.442 116.053 218.922 118.2 217.882 120.12C216.842 122.013 215.389 123.507 213.522 124.6C211.682 125.667 209.602 126.2 207.282 126.2ZM207.482 123.68C209.216 123.68 210.776 123.267 212.162 122.44C213.549 121.587 214.629 120.413 215.402 118.92C216.202 117.4 216.602 115.707 216.602 113.84C216.602 111.787 215.989 110.187 214.762 109.04C213.562 107.867 211.869 107.28 209.682 107.28C207.949 107.28 206.389 107.707 205.002 108.56C203.616 109.413 202.522 110.6 201.722 112.12C200.949 113.613 200.562 115.293 200.562 117.16C200.562 119.213 201.162 120.813 202.362 121.96C203.589 123.107 205.296 123.68 207.482 123.68ZM245.48 104.96L241.8 123.44C241.08 127.12 239.72 129.787 237.72 131.44C235.747 133.12 233.027 133.96 229.56 133.96C227.587 133.96 225.8 133.68 224.2 133.12C222.627 132.587 221.294 131.813 220.2 130.8L221.88 128.64C222.734 129.52 223.84 130.2 225.2 130.68C226.587 131.187 228.107 131.44 229.76 131.44C232.4 131.44 234.454 130.827 235.92 129.6C237.387 128.373 238.374 126.48 238.88 123.92L239.36 121.6C238.347 122.747 237.12 123.64 235.68 124.28C234.267 124.893 232.694 125.2 230.96 125.2C228.16 125.2 225.907 124.44 224.2 122.92C222.52 121.4 221.68 119.333 221.68 116.72C221.68 114.48 222.187 112.453 223.2 110.64C224.24 108.827 225.667 107.4 227.48 106.36C229.32 105.32 231.387 104.8 233.68 104.8C235.68 104.8 237.4 105.213 238.84 106.04C240.28 106.84 241.294 108.027 241.88 109.6L242.76 104.96H245.48ZM231.52 122.68C233.254 122.68 234.814 122.28 236.2 121.48C237.614 120.68 238.707 119.573 239.48 118.16C240.28 116.747 240.68 115.16 240.68 113.4C240.68 111.48 240.067 109.987 238.84 108.92C237.614 107.827 235.907 107.28 233.72 107.28C231.96 107.28 230.387 107.68 229 108.48C227.614 109.28 226.52 110.387 225.72 111.8C224.947 113.213 224.56 114.8 224.56 116.56C224.56 118.48 225.174 119.987 226.4 121.08C227.627 122.147 229.334 122.68 231.52 122.68ZM252.182 104.96H255.022L250.862 126H248.022L252.182 104.96ZM254.822 100.36C254.262 100.36 253.796 100.173 253.422 99.8C253.076 99.4267 252.902 98.9867 252.902 98.48C252.902 97.8667 253.102 97.36 253.502 96.96C253.929 96.5333 254.462 96.32 255.102 96.32C255.662 96.32 256.129 96.5067 256.502 96.88C256.876 97.2267 257.062 97.64 257.062 98.12C257.062 98.76 256.849 99.2933 256.422 99.72C255.996 100.147 255.462 100.36 254.822 100.36ZM263.684 126.2C262.004 126.2 260.391 125.96 258.844 125.48C257.324 125 256.151 124.387 255.324 123.64L256.684 121.4C257.484 122.093 258.538 122.653 259.844 123.08C261.151 123.507 262.524 123.72 263.964 123.72C265.964 123.72 267.498 123.4 268.564 122.76C269.658 122.093 270.204 121.16 270.204 119.96C270.204 119.293 269.978 118.76 269.524 118.36C269.098 117.96 268.564 117.653 267.924 117.44C267.284 117.227 266.351 116.987 265.124 116.72C263.658 116.4 262.471 116.08 261.564 115.76C260.658 115.44 259.884 114.933 259.244 114.24C258.604 113.547 258.284 112.587 258.284 111.36C258.284 109.36 259.111 107.773 260.764 106.6C262.418 105.4 264.631 104.8 267.404 104.8C268.764 104.8 270.084 104.987 271.364 105.36C272.671 105.707 273.724 106.173 274.524 106.76L273.324 109.04C272.524 108.453 271.578 108.013 270.484 107.72C269.418 107.4 268.311 107.24 267.164 107.24C265.244 107.24 263.751 107.587 262.684 108.28C261.618 108.973 261.084 109.907 261.084 111.08C261.084 111.773 261.311 112.333 261.764 112.76C262.218 113.187 262.778 113.507 263.444 113.72C264.138 113.933 265.071 114.16 266.244 114.4C267.684 114.72 268.844 115.04 269.724 115.36C270.631 115.653 271.404 116.147 272.044 116.84C272.684 117.533 273.004 118.467 273.004 119.64C273.004 121.693 272.151 123.307 270.444 124.48C268.764 125.627 266.511 126.2 263.684 126.2ZM279.815 119.64C279.708 120.28 279.655 120.72 279.655 120.96C279.655 122.827 280.668 123.76 282.695 123.76C283.895 123.76 284.975 123.4 285.935 122.68L286.575 124.84C285.375 125.747 283.828 126.2 281.935 126.2C280.361 126.2 279.108 125.773 278.175 124.92C277.268 124.067 276.815 122.893 276.815 121.4C276.815 120.813 276.868 120.267 276.975 119.76L280.815 100.36H283.655L282.735 104.96H289.135L288.655 107.36H282.255L279.815 119.64ZM294.403 104.96H297.243L293.083 126H290.243L294.403 104.96ZM297.043 100.36C296.483 100.36 296.016 100.173 295.643 99.8C295.296 99.4267 295.123 98.9867 295.123 98.48C295.123 97.8667 295.323 97.36 295.723 96.96C296.149 96.5333 296.683 96.32 297.323 96.32C297.883 96.32 298.349 96.5067 298.723 96.88C299.096 97.2267 299.283 97.64 299.283 98.12C299.283 98.76 299.069 99.2933 298.643 99.72C298.216 100.147 297.683 100.36 297.043 100.36ZM309.305 126.2C307.331 126.2 305.611 125.84 304.145 125.12C302.678 124.373 301.545 123.333 300.745 122C299.971 120.64 299.585 119.067 299.585 117.28C299.585 114.907 300.105 112.773 301.145 110.88C302.185 108.987 303.638 107.507 305.505 106.44C307.371 105.347 309.478 104.8 311.825 104.8C313.771 104.8 315.438 105.16 316.825 105.88C318.238 106.573 319.331 107.613 320.105 109L317.705 110.4C316.505 108.32 314.465 107.28 311.585 107.28C309.851 107.28 308.278 107.707 306.865 108.56C305.478 109.413 304.385 110.587 303.585 112.08C302.811 113.573 302.425 115.267 302.425 117.16C302.425 119.213 303.025 120.813 304.225 121.96C305.451 123.107 307.185 123.68 309.425 123.68C310.785 123.68 312.038 123.427 313.185 122.92C314.358 122.387 315.318 121.627 316.065 120.64L318.105 122.2C317.171 123.453 315.918 124.44 314.345 125.16C312.798 125.853 311.118 126.2 309.305 126.2ZM327.244 126.2C325.564 126.2 323.95 125.96 322.404 125.48C320.884 125 319.71 124.387 318.884 123.64L320.244 121.4C321.044 122.093 322.097 122.653 323.404 123.08C324.71 123.507 326.084 123.72 327.524 123.72C329.524 123.72 331.057 123.4 332.124 122.76C333.217 122.093 333.764 121.16 333.764 119.96C333.764 119.293 333.537 118.76 333.084 118.36C332.657 117.96 332.124 117.653 331.484 117.44C330.844 117.227 329.91 116.987 328.684 116.72C327.217 116.4 326.03 116.08 325.124 115.76C324.217 115.44 323.444 114.933 322.804 114.24C322.164 113.547 321.844 112.587 321.844 111.36C321.844 109.36 322.67 107.773 324.324 106.6C325.977 105.4 328.19 104.8 330.964 104.8C332.324 104.8 333.644 104.987 334.924 105.36C336.23 105.707 337.284 106.173 338.084 106.76L336.884 109.04C336.084 108.453 335.137 108.013 334.044 107.72C332.977 107.4 331.87 107.24 330.724 107.24C328.804 107.24 327.31 107.587 326.244 108.28C325.177 108.973 324.644 109.907 324.644 111.08C324.644 111.773 324.87 112.333 325.324 112.76C325.777 113.187 326.337 113.507 327.004 113.72C327.697 113.933 328.63 114.16 329.804 114.4C331.244 114.72 332.404 115.04 333.284 115.36C334.19 115.653 334.964 116.147 335.604 116.84C336.244 117.533 336.564 118.467 336.564 119.64C336.564 121.693 335.71 123.307 334.004 124.48C332.324 125.627 330.07 126.2 327.244 126.2Z" fill="white"/>
<path d="M479.849 69.9287C479.849 69.9287 479.04 70.3808 478.962 70.4124L478.849 70.4698L470.292 74.9077L470.098 75.0073L470.095 75.0097C469.718 75.2426 469.47 75.6337 469.47 76.0788L469.546 85.9289L479.151 81.2193L479.164 81.2122C479.575 80.9875 479.849 80.5764 479.849 80.1092V69.9287Z" fill="white"/>
<path d="M479.228 68.719L468.965 63.9287L458.667 68.719L468.957 74.3077L479.228 68.719Z" fill="#E89C2A"/>
<path d="M467.799 75.0098L467.6 74.9078L458.046 69.9287V80.1092C458.046 80.5777 458.32 80.9876 458.731 81.2123L458.741 81.2193L468.425 85.9288V76.0788C468.425 75.6338 468.177 75.2427 467.799 75.0098Z" fill="white"/>
<path d="M440.601 49.089L439.112 49.9828L432.375 54.0212L428.697 56.2303L423.117 59.5742L409.741 67.5926C409.343 67.8409 409.156 68.3218 409.279 68.7753C409.407 69.2286 409.817 69.5425 410.288 69.5479L414.93 69.537C415.051 69.5383 415.173 69.5172 415.286 69.4775L424.886 66.041L426.996 65.2864L434.734 62.5158L436.849 62.4805L440.663 62.4638L440.601 49.089Z" fill="#E89C2A"/>
<path d="M448.053 61.841L451.851 61.8079L453.954 61.8174L461.671 64.4751L463.775 65.1989L473.348 68.4953L473.35 68.4934C473.463 68.5315 473.584 68.5509 473.705 68.548L478.323 68.4984C478.798 68.4924 479.211 68.1726 479.335 67.7158C479.46 67.2553 479.264 66.7753 478.859 66.537L465.506 58.7279L459.936 55.4787L456.264 53.3271L449.539 49.3942L448.053 48.5237L448.053 61.841Z" fill="#E89C2A"/>
<path d="M456.161 93.9519L456.176 90.4668C456.178 90.1227 456.247 89.6649 455.966 89.4721L447.357 83.812L448.267 77.557C448.334 77.2105 448.357 76.7618 448.357 76.4084L448.496 31.3796C448.498 31.2141 448.577 30.0342 448.503 29.886L447.317 26.8436C447.287 26.7843 447.251 26.7307 447.212 26.6771C446.561 25.8756 445.577 25.4135 444.54 25.4226C443.502 25.4316 442.52 25.9089 441.867 26.7237C441.828 26.7779 441.793 26.8322 441.763 26.892L440.538 29.9206C440.537 30.0001 440.503 30.6272 440.505 30.7927L440.247 76.4436C440.249 76.7877 440.239 77.2536 440.302 77.5916L441.216 83.8386L432.543 89.9831C432.261 90.1827 432.278 90.7261 432.278 91.0683L432.263 94.5533C432.263 94.5533 432.209 94.8591 432.406 95.0545C432.441 95.0896 432.482 95.1227 432.521 95.154C432.789 95.3488 433.133 95.4072 433.451 95.3095L442.609 92.4844L443.101 93.6927C443.154 94.0159 443.304 94.314 443.537 94.5445C443.849 94.8468 444.27 95.0105 444.707 95.0012C445.499 95.0203 446.187 94.4452 446.312 93.6611L446.783 92.4444L454.946 95.1142L454.944 95.1161C455.264 95.21 455.608 95.1456 455.876 94.9424C456.143 94.743 456.161 94.2866 456.161 93.9519Z" fill="white"/>
</svg>
