<svg width="80" height="144" viewBox="0 0 80 144" fill="none" xmlns="http://www.w3.org/2000/svg">
<path d="M2.26416 111.076V61.2289H25.4491C28.7336 61.2289 31.3419 61.7361 33.274 62.7504C35.2061 63.7647 36.5827 65.2138 37.4038 67.0976C38.2249 68.933 38.6355 71.1549 38.6355 73.7632C38.6355 75.8885 38.3457 77.7723 37.7661 79.4145C37.1864 81.0085 36.2687 82.3127 35.0128 83.327C33.8053 84.3413 32.1872 85.0659 30.1585 85.5006V85.7904C32.6219 86.2251 34.5057 87.0221 35.8098 88.1813C37.114 89.2923 38.0076 90.693 38.4906 92.3836C38.9736 94.0742 39.2151 95.9338 39.2151 97.9625C39.2151 99.7013 38.9977 101.368 38.563 102.962C38.1766 104.556 37.4762 105.956 36.4619 107.164C35.4959 108.372 34.0951 109.338 32.2596 110.062C30.4242 110.738 28.0574 111.076 25.1593 111.076H2.26416ZM8.4951 105.715H23.7102C26.077 105.715 27.9366 105.449 29.2891 104.918C30.6415 104.338 31.5834 103.421 32.1147 102.165C32.6944 100.861 32.9842 99.1942 32.9842 97.1655C32.9842 95.0885 32.6702 93.4221 32.0423 92.1662C31.4627 90.8621 30.4966 89.9444 29.1442 89.413C27.7917 88.8334 25.9804 88.5436 23.7102 88.5436H8.4951V105.715ZM2.26416 83.1096H23.4204C25.4491 83.1096 27.1155 82.8198 28.4196 82.2402C29.7721 81.6606 30.7623 80.767 31.3902 79.5594C32.0664 78.3036 32.4045 76.7579 32.4045 74.9225C32.4045 72.8938 32.1389 71.2757 31.6076 70.0681C31.1245 68.8606 30.231 67.9911 28.9268 67.4598C27.6227 66.8802 25.7872 66.5904 23.4204 66.5904H2.26416V74.8501V83.1096Z" fill="#0B0601"/>
<path d="M43.0189 111.076V61.2288H80.0001V66.5903H43.0189V75.2274V84.2692H74.717V89.7028H49.2499V111.076H43.0189Z" fill="#0B0601"/>
<path d="M3.65887 114.606H4.98113L2.68075 126.126H9.78113L9.54566 127.285H1.12302L3.65887 114.606ZM15.6146 127.376C14.7451 127.376 13.9844 127.213 13.3323 126.887C12.6802 126.549 12.1731 126.078 11.8108 125.474C11.4606 124.858 11.2855 124.146 11.2855 123.337C11.2855 122.262 11.521 121.296 11.9919 120.439C12.4629 119.581 13.115 118.911 13.9482 118.428C14.7934 117.933 15.7414 117.685 16.7919 117.685C18.1202 117.685 19.1708 118.048 19.9436 118.772C20.7285 119.497 21.121 120.475 21.121 121.707C21.121 122.781 20.8855 123.753 20.4146 124.623C19.9436 125.48 19.2855 126.156 18.4402 126.651C17.607 127.134 16.6651 127.376 15.6146 127.376ZM15.7051 126.235C16.49 126.235 17.1965 126.048 17.8244 125.673C18.4523 125.287 18.9414 124.756 19.2916 124.079C19.6538 123.391 19.835 122.624 19.835 121.779C19.835 120.849 19.5572 120.125 19.0017 119.605C18.4583 119.074 17.6916 118.808 16.7014 118.808C15.9165 118.808 15.21 119.002 14.5821 119.388C13.9542 119.774 13.4591 120.312 13.0968 121C12.7467 121.676 12.5716 122.437 12.5716 123.282C12.5716 124.212 12.8433 124.937 13.3867 125.456C13.9421 125.975 14.715 126.235 15.7051 126.235ZM33.4552 117.758L31.7888 126.126C31.4628 127.793 30.8469 129 29.9413 129.749C29.0477 130.51 27.816 130.89 26.2462 130.89C25.3526 130.89 24.5435 130.763 23.819 130.51C23.1066 130.268 22.5028 129.918 22.0077 129.459L22.7684 128.481C23.1549 128.879 23.656 129.187 24.2718 129.405C24.8998 129.634 25.5881 129.749 26.3367 129.749C27.5322 129.749 28.462 129.471 29.1262 128.916C29.7903 128.36 30.2371 127.503 30.4666 126.344L30.6839 125.293C30.225 125.812 29.6696 126.217 29.0175 126.507C28.3775 126.784 27.665 126.923 26.8801 126.923C25.6122 126.923 24.5918 126.579 23.819 125.891C23.0583 125.202 22.6779 124.267 22.6779 123.083C22.6779 122.069 22.9073 121.151 23.3662 120.33C23.8371 119.509 24.4832 118.863 25.3043 118.392C26.1375 117.921 27.0733 117.685 28.1118 117.685C29.0175 117.685 29.7964 117.873 30.4484 118.247C31.1005 118.609 31.5594 119.147 31.825 119.859L32.2235 117.758H33.4552ZM27.1337 125.782C27.9186 125.782 28.625 125.601 29.253 125.239C29.893 124.876 30.3881 124.375 30.7383 123.735C31.1005 123.095 31.2817 122.377 31.2817 121.58C31.2817 120.71 31.0039 120.034 30.4484 119.551C29.893 119.056 29.1201 118.808 28.13 118.808C27.333 118.808 26.6205 118.99 25.9926 119.352C25.3647 119.714 24.8696 120.215 24.5073 120.855C24.1571 121.495 23.982 122.214 23.982 123.011C23.982 123.88 24.2598 124.562 24.8152 125.057C25.3707 125.54 26.1435 125.782 27.1337 125.782ZM37.0334 117.758H38.3195L36.4357 127.285H35.1497L37.0334 117.758ZM38.2289 115.675C37.9753 115.675 37.764 115.59 37.595 115.421C37.438 115.252 37.3595 115.053 37.3595 114.824C37.3595 114.546 37.45 114.316 37.6312 114.135C37.8244 113.942 38.0659 113.845 38.3557 113.845C38.6093 113.845 38.8206 113.93 38.9897 114.099C39.1587 114.256 39.2433 114.443 39.2433 114.66C39.2433 114.95 39.1466 115.192 38.9534 115.385C38.7602 115.578 38.5187 115.675 38.2289 115.675ZM42.7854 127.376C42.0246 127.376 41.2941 127.267 40.5937 127.05C39.9054 126.833 39.3741 126.555 38.9997 126.217L39.6156 125.202C39.9778 125.516 40.4548 125.77 41.0465 125.963C41.6382 126.156 42.2601 126.253 42.9122 126.253C43.8178 126.253 44.5122 126.108 44.9952 125.818C45.4903 125.516 45.7378 125.094 45.7378 124.55C45.7378 124.248 45.6352 124.007 45.4299 123.826C45.2367 123.645 44.9952 123.506 44.7054 123.409C44.4156 123.313 43.9929 123.204 43.4375 123.083C42.7733 122.938 42.2359 122.793 41.8254 122.648C41.4148 122.504 41.0646 122.274 40.7748 121.96C40.485 121.646 40.3401 121.211 40.3401 120.656C40.3401 119.75 40.7144 119.032 41.4631 118.5C42.2118 117.957 43.2141 117.685 44.4699 117.685C45.0858 117.685 45.6835 117.77 46.2631 117.939C46.8548 118.096 47.3318 118.307 47.6941 118.573L47.1507 119.605C46.7884 119.34 46.3597 119.14 45.8646 119.008C45.3816 118.863 44.8805 118.79 44.3612 118.79C43.4918 118.79 42.8156 118.947 42.3325 119.261C41.8495 119.575 41.608 119.998 41.608 120.529C41.608 120.843 41.7107 121.097 41.9159 121.29C42.1212 121.483 42.3748 121.628 42.6767 121.725C42.9907 121.821 43.4133 121.924 43.9446 122.033C44.5967 122.177 45.122 122.322 45.5205 122.467C45.931 122.6 46.2812 122.824 46.571 123.137C46.8608 123.451 47.0058 123.874 47.0058 124.405C47.0058 125.335 46.6193 126.066 45.8465 126.597C45.0858 127.116 44.0654 127.376 42.7854 127.376ZM50.6331 124.405C50.5848 124.695 50.5606 124.894 50.5606 125.003C50.5606 125.848 51.0195 126.271 51.9372 126.271C52.4806 126.271 52.9697 126.108 53.4044 125.782L53.6942 126.76C53.1508 127.171 52.4504 127.376 51.5931 127.376C50.8806 127.376 50.3131 127.183 49.8904 126.796C49.4799 126.41 49.2746 125.879 49.2746 125.202C49.2746 124.937 49.2987 124.689 49.347 124.46L51.0859 115.675H52.3719L51.9553 117.758H54.8534L54.6361 118.845H51.738L50.6331 124.405ZM57.7823 117.758H59.0683L57.1845 127.285H55.8985L57.7823 117.758ZM58.9777 115.675C58.7241 115.675 58.5128 115.59 58.3438 115.421C58.1868 115.252 58.1083 115.053 58.1083 114.824C58.1083 114.546 58.1989 114.316 58.38 114.135C58.5732 113.942 58.8147 113.845 59.1045 113.845C59.3581 113.845 59.5694 113.93 59.7385 114.099C59.9075 114.256 59.9921 114.443 59.9921 114.66C59.9921 114.95 59.8955 115.192 59.7023 115.385C59.5091 115.578 59.2675 115.675 58.9777 115.675ZM65.0738 127.376C64.1802 127.376 63.4014 127.213 62.7372 126.887C62.0731 126.549 61.5599 126.078 61.1976 125.474C60.8474 124.858 60.6723 124.146 60.6723 123.337C60.6723 122.262 60.9078 121.296 61.3787 120.439C61.8497 119.581 62.5078 118.911 63.3531 118.428C64.1983 117.933 65.1523 117.685 66.215 117.685C67.0965 117.685 67.8512 117.848 68.4791 118.174C69.1191 118.488 69.6142 118.959 69.9644 119.587L68.8776 120.221C68.3342 119.279 67.4104 118.808 66.1063 118.808C65.3214 118.808 64.6089 119.002 63.9689 119.388C63.341 119.774 62.8459 120.306 62.4836 120.982C62.1334 121.658 61.9583 122.425 61.9583 123.282C61.9583 124.212 62.23 124.937 62.7734 125.456C63.3289 125.975 64.1138 126.235 65.1282 126.235C65.744 126.235 66.3116 126.12 66.8308 125.891C67.3621 125.649 67.7968 125.305 68.135 124.858L69.0587 125.565C68.6361 126.132 68.0685 126.579 67.3561 126.905C66.6557 127.219 65.895 127.376 65.0738 127.376ZM73.7406 127.376C72.9798 127.376 72.2492 127.267 71.5489 127.05C70.8606 126.833 70.3292 126.555 69.9549 126.217L70.5708 125.202C70.933 125.516 71.41 125.77 72.0017 125.963C72.5934 126.156 73.2153 126.253 73.8674 126.253C74.773 126.253 75.4674 126.108 75.9504 125.818C76.4455 125.516 76.693 125.094 76.693 124.55C76.693 124.248 76.5904 124.007 76.3851 123.826C76.1919 123.645 75.9504 123.506 75.6606 123.409C75.3708 123.313 74.9481 123.204 74.3926 123.083C73.7285 122.938 73.1911 122.793 72.7806 122.648C72.37 122.504 72.0198 122.274 71.73 121.96C71.4402 121.646 71.2953 121.211 71.2953 120.656C71.2953 119.75 71.6696 119.032 72.4183 118.5C73.167 117.957 74.1692 117.685 75.4251 117.685C76.0409 117.685 76.6387 117.77 77.2183 117.939C77.81 118.096 78.287 118.307 78.6492 118.573L78.1058 119.605C77.7436 119.34 77.3149 119.14 76.8198 119.008C76.3368 118.863 75.8357 118.79 75.3164 118.79C74.447 118.79 73.7708 118.947 73.2877 119.261C72.8047 119.575 72.5632 119.998 72.5632 120.529C72.5632 120.843 72.6658 121.097 72.8711 121.29C73.0764 121.483 73.33 121.628 73.6319 121.725C73.9458 121.821 74.3685 121.924 74.8998 122.033C75.5519 122.177 76.0772 122.322 76.4757 122.467C76.8862 122.6 77.2364 122.824 77.5262 123.137C77.816 123.451 77.9609 123.874 77.9609 124.405C77.9609 125.335 77.5745 126.066 76.8017 126.597C76.0409 127.116 75.0206 127.376 73.7406 127.376Z" fill="#E89C2A"/>
<path d="M67.6287 17.9992C67.4018 17.9992 67.1868 18.0406 66.9914 18.1201L66.7047 18.2647L45.1505 29.444L44.6618 29.6949C44.6618 29.6949 44.6552 29.6978 44.6552 29.7008C43.7049 30.2876 43.0796 31.2728 43.0796 32.3939V55.7554C43.0796 56.5576 43.7897 57.2064 44.6747 57.2064C44.9485 57.2064 45.2091 57.142 45.4371 57.03C45.4566 57.018 45.4827 57.0063 45.5023 56.9945L67.4658 45.3431L67.4984 45.3253C68.5343 44.7592 69.2248 43.7237 69.2248 42.5468V19.4445C69.225 18.6452 68.5084 17.9992 67.6287 17.9992Z" fill="#0B0601"/>
<path d="M65.3891 10.8753L42.5496 0.60185C42.5496 0.60185 41.2098 -0.000244141 40.4659 -0.000244141C39.722 -0.000244141 38.3886 0.60185 38.3886 0.60185L15.5295 10.8753C15.5295 10.8753 14.5253 11.2891 14.5253 12.0668C14.5253 12.8916 15.5686 13.5123 15.5686 13.5123L38.5189 25.6259L38.8837 25.8118C39.3594 26.0239 39.899 26.1448 40.4659 26.1448C41.0392 26.1448 41.5865 26.0238 42.0675 25.8059L42.3867 25.6406L65.3761 13.5063C65.3761 13.5063 66.3199 12.9989 66.3199 12.0666C66.3199 11.2497 65.3891 10.8753 65.3891 10.8753Z" fill="#E89C2A"/>
<path d="M36.1899 29.7009L35.6881 29.4441L14.1392 18.2647L13.8527 18.1202C13.6647 18.0405 13.4431 17.9993 13.2152 17.9993C12.3357 17.9993 11.6201 18.6451 11.6201 19.4444V42.5467C11.6201 43.7268 12.3096 44.7593 13.3456 45.3253L13.3717 45.343L35.3362 56.9944C35.5773 57.1302 35.864 57.2065 36.1704 57.2065C37.0489 57.2065 37.7655 56.5576 37.7655 55.7554V32.394C37.7654 31.2729 37.1399 30.2876 36.1899 29.7009Z" fill="#0B0601"/>
</svg>
