<svg width="15" height="14" viewBox="0 0 15 14" fill="none" xmlns="http://www.w3.org/2000/svg">
<path d="M5.75767 6.23C6.02975 6.71222 6.36208 7.14972 6.75465 7.5425C7.14723 7.93528 7.58451 8.26778 8.06648 8.54L8.57955 7.81667C8.66506 7.69222 8.77972 7.61444 8.92354 7.58333C9.06735 7.55222 9.20534 7.57167 9.33749 7.64167C10.1693 8.10056 11.0594 8.365 12.0078 8.435C12.1555 8.45056 12.2818 8.51278 12.3868 8.62167C12.4917 8.73056 12.5442 8.86278 12.5442 9.01833V11.62C12.5442 11.7678 12.4936 11.8981 12.3926 12.0108C12.2915 12.1236 12.1671 12.1878 12.0194 12.2033C11.7085 12.2344 11.3975 12.25 11.0866 12.25C9.85833 12.25 8.68449 12.0128 7.56507 11.5383C6.48452 11.0794 5.52834 10.4339 4.69655 9.60167C3.86475 8.76944 3.21953 7.81278 2.76088 6.73167C2.28668 5.61167 2.04958 4.43722 2.04958 3.20833C2.04958 2.89722 2.06512 2.58611 2.09622 2.275C2.11177 2.12722 2.1759 2.00278 2.28862 1.90167C2.40134 1.80056 2.53155 1.75 2.67925 1.75H5.27958C5.43506 1.75 5.56721 1.8025 5.67604 1.9075C5.78488 2.0125 5.84707 2.13889 5.86261 2.28667C5.93258 3.23556 6.19689 4.12611 6.65554 4.95833C6.7255 5.09056 6.74494 5.22861 6.71384 5.3725C6.68275 5.51639 6.60501 5.63111 6.48063 5.71667L5.75767 6.23ZM4.28842 5.845L5.39619 5.05167C5.08524 4.375 4.87146 3.66333 4.75485 2.91667H3.21564V3.20833C3.21564 4.27389 3.42165 5.29667 3.83366 6.27667C4.23012 7.21778 4.79178 8.05194 5.51862 8.77917C6.24547 9.50639 7.07921 10.0683 8.01984 10.465C8.99933 10.8772 10.0216 11.0833 11.0866 11.0833H11.3781V9.54333C10.6318 9.42667 9.92053 9.21278 9.24421 8.90167L8.45128 10.01C8.13256 9.88556 7.82161 9.73778 7.51843 9.56667L7.48345 9.555C6.91596 9.22833 6.399 8.83167 5.93258 8.365C5.46615 7.89833 5.06969 7.38111 4.74319 6.81333L4.73153 6.77833C4.56051 6.475 4.4128 6.16389 4.28842 5.845Z" fill="white"/>
</svg>
