<svg width="14" height="14" viewBox="0 0 14 14" fill="none" xmlns="http://www.w3.org/2000/svg">
<path d="M7.69222 11.6316C8.45376 11.5383 9.14537 11.2738 9.76704 10.8383C10.3887 10.4027 10.8744 9.85436 11.2241 9.19325C11.5893 8.50881 11.7719 7.7777 11.7719 6.99992C11.7719 6.15214 11.5582 5.36659 11.1308 4.64325C10.719 3.94325 10.1634 3.38714 9.46398 2.97492C8.74129 2.54714 7.95643 2.33325 7.1094 2.33325C6.26238 2.33325 5.47752 2.54714 4.75483 2.97492C4.05545 3.38714 3.49983 3.94325 3.08798 4.64325C2.66058 5.36659 2.44688 6.15214 2.44688 6.99992C2.44688 7.7777 2.6295 8.50881 2.99473 9.19325C3.34442 9.85436 3.8301 10.4027 4.45177 10.8383C5.07343 11.2738 5.76504 11.5383 6.52659 11.6316V8.16659H5.36096V6.99992H6.52659V6.03159C6.52659 5.66603 6.54601 5.38214 6.58487 5.17992C6.61595 5.00881 6.67423 4.84547 6.75971 4.68992C6.91513 4.40214 7.1366 4.18047 7.42412 4.02492C7.64948 3.90825 7.97585 3.83436 8.40325 3.80325C8.59752 3.7877 8.84619 3.80325 9.14926 3.84992V4.95825H8.85785C8.59364 4.95825 8.39548 4.96603 8.26338 4.98159C8.13127 4.99714 8.03025 5.02436 7.96031 5.06325C7.89038 5.10214 7.83404 5.15853 7.7913 5.23242C7.74856 5.30631 7.72136 5.39381 7.7097 5.49492C7.69805 5.59603 7.69222 5.77492 7.69222 6.03159V6.99992H9.14926L8.85785 8.16659H7.69222V11.6316ZM7.1094 12.8333C6.31677 12.8333 5.55911 12.6816 4.83642 12.3783C4.14482 12.0827 3.52897 11.6646 2.9889 11.1241C2.44882 10.5835 2.03114 9.96714 1.73585 9.27492C1.43278 8.55159 1.28125 7.79325 1.28125 6.99992C1.28125 6.20659 1.43278 5.44825 1.73585 4.72492C2.03114 4.0327 2.44882 3.41631 2.9889 2.87575C3.52897 2.3352 4.14482 1.91714 4.83642 1.62158C5.55911 1.31825 6.31677 1.16658 7.1094 1.16658C7.90203 1.16658 8.65969 1.31825 9.38238 1.62158C10.074 1.91714 10.6898 2.3352 11.2299 2.87575C11.77 3.41631 12.1877 4.0327 12.483 4.72492C12.786 5.44825 12.9376 6.20659 12.9376 6.99992C12.9376 7.79325 12.786 8.55159 12.483 9.27492C12.1877 9.96714 11.77 10.5835 11.2299 11.1241C10.6898 11.6646 10.074 12.0827 9.38238 12.3783C8.65969 12.6816 7.90203 12.8333 7.1094 12.8333Z" fill="white"/>
</svg>
