<svg width="15" height="14" viewBox="0 0 15 14" fill="none" xmlns="http://www.w3.org/2000/svg">
<path d="M7.51565 5.24992C7.19705 5.24992 6.9037 5.3277 6.6356 5.48325C6.36751 5.63881 6.15575 5.85075 6.00033 6.11909C5.84492 6.38742 5.76721 6.68103 5.76721 6.99992C5.76721 7.31881 5.84492 7.61242 6.00033 7.88075C6.15575 8.14909 6.36751 8.36103 6.6356 8.51659C6.9037 8.67214 7.19705 8.74992 7.51565 8.74992C7.83426 8.74992 8.12761 8.67214 8.3957 8.51659C8.6638 8.36103 8.87556 8.14909 9.03097 7.88075C9.18639 7.61242 9.2641 7.31881 9.2641 6.99992C9.2641 6.68103 9.18639 6.38742 9.03097 6.11909C8.87556 5.85075 8.6638 5.63881 8.3957 5.48325C8.12761 5.3277 7.83426 5.24992 7.51565 5.24992ZM7.51565 4.08325C8.04407 4.08325 8.53169 4.21353 8.97852 4.47408C9.42534 4.73464 9.77892 5.08853 10.0392 5.53575C10.2996 5.98297 10.4297 6.47103 10.4297 6.99992C10.4297 7.52881 10.2996 8.01686 10.0392 8.46409C9.77892 8.91131 9.42534 9.2652 8.97852 9.52575C8.53169 9.78631 8.04407 9.91659 7.51565 9.91659C6.98723 9.91659 6.49961 9.78631 6.05279 9.52575C5.60596 9.2652 5.25239 8.91131 4.99206 8.46409C4.73174 8.01686 4.60158 7.52881 4.60158 6.99992C4.60158 6.47103 4.73174 5.98297 4.99206 5.53575C5.25239 5.08853 5.60596 4.73464 6.05279 4.47408C6.49961 4.21353 6.98723 4.08325 7.51565 4.08325ZM11.304 3.93159C11.304 4.13381 11.2321 4.30686 11.0883 4.45075C10.9445 4.59464 10.7736 4.66658 10.5754 4.66658C10.3773 4.66658 10.2063 4.59464 10.0626 4.45075C9.91879 4.30686 9.84691 4.13575 9.84691 3.93742C9.84691 3.73909 9.91879 3.56797 10.0626 3.42409C10.2063 3.2802 10.3773 3.20825 10.5754 3.20825C10.7736 3.20825 10.9445 3.2802 11.0883 3.42409C11.2321 3.56797 11.304 3.73714 11.304 3.93159ZM7.51565 2.33325C6.80073 2.33325 6.31505 2.3352 6.05861 2.33909C5.80218 2.34297 5.50688 2.3527 5.17274 2.36825C4.75311 2.38381 4.40342 2.44603 4.12367 2.55492C3.88277 2.64825 3.67101 2.78631 3.4884 2.96909C3.30578 3.15186 3.16785 3.36381 3.0746 3.60492C2.96581 3.88492 2.90364 4.23492 2.8881 4.65492C2.87256 4.97381 2.86284 5.25964 2.85896 5.51242C2.85507 5.7652 2.85313 6.26103 2.85313 6.99992C2.85313 7.71547 2.85507 8.20159 2.85896 8.45825C2.86284 8.71492 2.87256 9.01047 2.8881 9.34492C2.90364 9.76492 2.96581 10.1149 3.0746 10.3949C3.16785 10.636 3.30578 10.848 3.4884 11.0308C3.67101 11.2135 3.88277 11.3477 4.12367 11.4333C4.40342 11.5499 4.75311 11.616 5.17274 11.6316C5.49134 11.6471 5.77692 11.6569 6.02947 11.6608C6.28203 11.6646 6.77742 11.6666 7.51565 11.6666C8.23057 11.6666 8.71625 11.6646 8.97269 11.6608C9.22913 11.6569 9.52442 11.6471 9.85857 11.6316C10.2782 11.616 10.6279 11.5538 10.9076 11.4449C11.1485 11.3516 11.3603 11.2135 11.5429 11.0308C11.7255 10.848 11.8596 10.636 11.945 10.3949C12.0616 10.1149 12.1277 9.76492 12.1432 9.34492C12.1587 9.02603 12.1685 8.7402 12.1723 8.48742C12.1762 8.23464 12.1782 7.73881 12.1782 6.99992C12.1782 6.28436 12.1762 5.79825 12.1723 5.54159C12.1685 5.28492 12.1587 4.98936 12.1432 4.65492C12.1277 4.23492 12.0655 3.88492 11.9567 3.60492C11.8635 3.36381 11.7255 3.15186 11.5429 2.96909C11.3603 2.78631 11.1485 2.64825 10.9076 2.55492C10.6279 2.44603 10.2782 2.38381 9.85857 2.36825C9.53996 2.3527 9.25438 2.34297 9.00183 2.33909C8.74928 2.3352 8.25389 2.33325 7.51565 2.33325ZM7.51565 1.16658C8.2772 1.16658 8.79785 1.17047 9.0776 1.17825C9.31072 1.17825 9.59048 1.18603 9.91685 1.20158C10.4608 1.22492 10.931 1.31436 11.3273 1.46992C11.7236 1.62547 12.0694 1.85103 12.3647 2.14659C12.66 2.44214 12.8853 2.78825 13.0407 3.18492C13.1962 3.58158 13.2855 4.05214 13.3088 4.59659C13.3244 4.93103 13.3321 5.21103 13.3321 5.43659C13.3399 5.73214 13.3438 6.25714 13.3438 7.01159C13.3438 7.76603 13.3399 8.28325 13.3321 8.56325C13.3321 8.79659 13.3244 9.07659 13.3088 9.40325C13.2855 9.9477 13.1962 10.4183 13.0407 10.8149C12.8853 11.2116 12.66 11.5577 12.3647 11.8533C12.0694 12.1488 11.7236 12.3744 11.3273 12.5299C10.931 12.6855 10.4608 12.7749 9.91685 12.7983C9.5827 12.8138 9.30295 12.8216 9.0776 12.8216C8.7823 12.8294 8.25777 12.8333 7.504 12.8333C6.75022 12.8333 6.23346 12.8294 5.95371 12.8216C5.72058 12.8216 5.44083 12.8138 5.11445 12.7983C4.57049 12.7749 4.10036 12.6855 3.70404 12.5299C3.30773 12.3744 2.96192 12.1488 2.66663 11.8533C2.37134 11.5577 2.14598 11.2116 1.99056 10.8149C1.83515 10.4183 1.74578 9.9477 1.72247 9.40325C1.70693 9.06881 1.69916 8.78881 1.69916 8.56325C1.69139 8.2677 1.6875 7.7427 1.6875 6.98825C1.6875 6.23381 1.69139 5.71659 1.69916 5.43659C1.69916 5.20325 1.70693 4.92325 1.72247 4.59659C1.74578 4.05214 1.83515 3.58158 1.99056 3.18492C2.14598 2.78825 2.37134 2.44214 2.66663 2.14659C2.96192 1.85103 3.30773 1.62547 3.70404 1.46992C4.10036 1.31436 4.57049 1.22492 5.11445 1.20158C5.4486 1.18603 5.72835 1.17825 5.95371 1.17825C6.249 1.17047 6.76965 1.16658 7.51565 1.16658Z" fill="white"/>
</svg>
