<svg width="15" height="14" viewBox="0 0 15 14" fill="none" xmlns="http://www.w3.org/2000/svg">
<path d="M3.03884 1.75H12.3674C12.5306 1.75 12.6686 1.80639 12.7813 1.91917C12.894 2.03194 12.9504 2.17 12.9504 2.33333V11.6667C12.9504 11.83 12.894 11.9681 12.7813 12.0808C12.6686 12.1936 12.5306 12.25 12.3674 12.25H3.03884C2.87559 12.25 2.73761 12.1936 2.62489 12.0808C2.51217 11.9681 2.45581 11.83 2.45581 11.6667V2.33333C2.45581 2.17 2.51217 2.03194 2.62489 1.91917C2.73761 1.80639 2.87559 1.75 3.03884 1.75ZM3.62188 2.91667V11.0833H11.7843V2.91667H3.62188ZM5.07946 5.25C4.83847 5.25 4.63247 5.16444 4.46144 4.99333C4.29042 4.82222 4.20491 4.61611 4.20491 4.375C4.20491 4.13389 4.29042 3.92778 4.46144 3.75667C4.63247 3.58556 4.83847 3.5 5.07946 3.5C5.32045 3.5 5.52645 3.58556 5.69748 3.75667C5.8685 3.92778 5.95401 4.13389 5.95401 4.375C5.95401 4.61611 5.8685 4.82222 5.69748 4.99333C5.52645 5.16444 5.32045 5.25 5.07946 5.25ZM4.49643 5.83333H5.66249V10.2083H4.49643V5.83333ZM7.70311 6.07833C8.07625 5.72056 8.463 5.54167 8.86335 5.54167C9.2637 5.54167 9.6174 5.63889 9.92447 5.83333C10.2315 6.02778 10.4725 6.29222 10.6474 6.62667C10.8223 6.96111 10.9098 7.33056 10.9098 7.735V10.2083H9.74373V7.72333C9.74373 7.44333 9.64461 7.20417 9.44638 7.00583C9.24815 6.8075 9.00716 6.70833 8.72342 6.70833C8.43968 6.70833 8.19869 6.8075 8.00046 7.00583C7.80223 7.20417 7.70311 7.44333 7.70311 7.72333V10.2083H6.53704V5.83333H7.70311V6.07833Z" fill="white"/>
</svg>
